<svg width="223" height="46" viewBox="0 0 223 46" fill="none" xmlns="http://www.w3.org/2000/svg">
<path d="M29.9437 4.87773V9.50538C29.9437 9.92785 30.3137 10.2547 30.7328 10.2025L30.7846 10.1961C35.5163 9.62926 37.6108 16.0091 33.4867 18.3971C32.5775 18.9236 31.4148 19.5541 29.8282 19.7857C28.6884 19.952 28.2481 20.0789 26.636 20.3072C18.1 21.5153 9.75262 27.8299 11.8178 45.2448C11.8178 45.2448 15.9954 31.4379 27.8196 28.0392L32.9229 26.7907C33.4945 26.6506 34.4327 26.4339 35.01 26.3194C37.0214 25.9208 44.0748 24.0135 45.1995 16.7291C45.6802 13.6153 44.9968 10.3924 43.1076 7.87071C41.1272 5.22782 37.3782 2.64486 30.4887 4.19066C30.1699 4.26203 29.9437 4.55119 29.9437 4.87773Z" fill="#7E22CE"/>
<path d="M28.5701 5.42609L28.4694 9.84908C28.461 10.218 28.2062 10.5358 27.848 10.6243L24.3989 11.4757C24.0474 11.5625 23.7946 11.8702 23.7781 12.2317L23.6276 15.487C23.6105 15.8569 23.3472 16.169 22.9854 16.2481L18.8488 17.1526C18.3227 17.2677 17.8309 16.8513 17.8575 16.3137L17.9877 13.6668C18.0147 13.1218 17.5104 12.704 16.9802 12.8316L13.8024 13.5951C13.2864 13.719 12.7908 13.3261 12.7939 12.7956L12.8188 8.20868C12.8208 7.82694 13.0867 7.49738 13.4597 7.41491L17.5205 6.51543C17.8878 6.43396 18.1524 6.11248 18.1611 5.73613L18.2533 1.77938C18.2634 1.35354 18.5987 1.00647 19.0239 0.982236L23.2823 0.738179C23.7653 0.710575 24.1669 1.10612 24.1461 1.58952L24.0276 4.34416C24.0043 4.88142 24.4972 5.29413 25.022 5.17732L27.5753 4.60943C28.093 4.49396 28.5822 4.89523 28.5701 5.42609Z" fill="#7E22CE"/>
<path d="M68.4772 8.26166C68.4772 9.57553 68.2722 10.7382 67.8625 11.7508C67.4525 12.7631 66.856 13.6161 66.0727 14.3089C65.2893 15.0023 64.3279 15.5292 63.1894 15.8907C62.0503 16.2523 60.7095 16.433 59.1667 16.433H57.2142V23.8995C57.2142 24.02 57.1752 24.1287 57.0968 24.225C57.0183 24.3216 56.8887 24.4001 56.7079 24.46C56.5272 24.5206 56.2858 24.5684 55.9849 24.6047C55.6839 24.6411 55.2981 24.6589 54.8279 24.6589C54.3697 24.6589 53.9873 24.6407 53.68 24.6047C53.3726 24.5687 53.1282 24.5206 52.9474 24.46C52.7667 24.3997 52.6401 24.3216 52.5677 24.225C52.4954 24.1287 52.4593 24.0203 52.4593 23.8995V2.85605C52.4593 2.2895 52.6068 1.86501 52.9023 1.58157C53.1976 1.29846 53.586 1.15674 54.0684 1.15674H59.5824C60.1365 1.15674 60.6644 1.17795 61.1643 1.22002C61.6642 1.26244 62.2644 1.35299 62.9632 1.49135C63.6621 1.63004 64.3703 1.88622 65.0877 2.25988C65.8047 2.63354 66.4164 3.10684 66.9227 3.67911C67.4289 4.25172 67.8144 4.9206 68.08 5.68576C68.3442 6.45092 68.4772 7.30967 68.4772 8.26166ZM63.5052 8.60502C63.5052 7.78533 63.3604 7.11072 63.0713 6.58019C62.7821 6.05 62.4263 5.65816 62.0048 5.40501C61.5827 5.15187 61.1397 4.9923 60.6758 4.92599C60.2119 4.86001 59.7326 4.82668 59.2384 4.82668H57.2136V12.7634H59.3468C60.1062 12.7634 60.7421 12.6611 61.2541 12.4561C61.7662 12.2514 62.1856 11.9653 62.5104 11.5973C62.836 11.2297 63.0827 10.7901 63.2517 10.2777C63.4207 9.76539 63.5052 9.20793 63.5052 8.60502Z" fill="#7E22CE"/>
<path d="M86.194 15.4037C86.194 15.9582 86.0705 16.3682 85.8234 16.6331C85.5763 16.8984 85.2357 17.031 84.8017 17.031H74.9849C74.9849 17.7181 75.0664 18.3418 75.2293 18.902C75.3919 19.4625 75.6511 19.9388 76.0069 20.3303C76.3624 20.7222 76.8202 21.0204 77.3807 21.2251C77.9412 21.4301 78.6128 21.5324 79.3965 21.5324C80.1919 21.5324 80.8908 21.4755 81.4933 21.3607C82.0959 21.2463 82.6174 21.1197 83.0573 20.981C83.4973 20.8427 83.8622 20.7161 84.1514 20.6013C84.4405 20.4869 84.6755 20.4296 84.8563 20.4296C84.9647 20.4296 85.0552 20.4505 85.1276 20.4929C85.2 20.5353 85.2602 20.6104 85.3084 20.7188C85.3565 20.8272 85.3898 20.981 85.408 21.18C85.4262 21.3789 85.4349 21.629 85.4349 21.9303C85.4349 22.1956 85.4286 22.4215 85.4168 22.6083C85.4047 22.7955 85.3865 22.955 85.3626 23.0873C85.3383 23.2203 85.302 23.3314 85.2542 23.4219C85.2057 23.5125 85.1428 23.5997 85.0647 23.6838C84.9862 23.7683 84.7721 23.8828 84.423 24.0275C84.0733 24.1723 83.6276 24.314 83.0849 24.4527C82.5426 24.591 81.9215 24.7116 81.223 24.8139C80.5238 24.9162 79.7765 24.9677 78.9811 24.9677C77.5467 24.9677 76.2904 24.787 75.2118 24.4254C74.1329 24.0639 73.2321 23.5159 72.509 22.7803C71.7859 22.0451 71.2463 21.117 70.8908 19.996C70.535 18.8751 70.3576 17.5615 70.3576 16.0548C70.3576 14.6207 70.5444 13.3281 70.9181 12.1768C71.2914 11.0259 71.8337 10.0496 72.545 9.24777C73.256 8.44659 74.1208 7.83494 75.1394 7.4128C76.1577 6.99134 77.306 6.78027 78.5832 6.78027C79.9331 6.78027 81.087 6.97922 82.0454 7.37678C83.0035 7.77468 83.7902 8.32608 84.4049 9.03098C85.0192 9.73622 85.4713 10.5707 85.7605 11.5348C86.0496 12.4993 86.1944 13.5479 86.1944 14.6807V15.4037H86.194ZM81.7828 14.1016C81.8189 12.8245 81.563 11.821 81.0147 11.0915C80.4659 10.3624 79.6193 9.99779 78.4744 9.99779C77.8961 9.99779 77.3925 10.1062 76.965 10.3233C76.5375 10.5404 76.1817 10.8326 75.8985 11.1999C75.6151 11.5678 75.3983 12.0014 75.2475 12.5016C75.0967 13.0019 75.0092 13.5354 74.9853 14.1016H81.7828Z" fill="#7E22CE"/>
<path d="M100.296 9.31051C100.296 9.74443 100.283 10.1002 100.26 10.3773C100.235 10.6547 100.199 10.8715 100.151 11.028C100.103 11.1849 100.04 11.2933 99.9617 11.3535C99.8832 11.4141 99.7836 11.4441 99.6631 11.4441C99.5665 11.4441 99.4581 11.4232 99.3376 11.3808C99.217 11.3387 99.0814 11.2936 98.9309 11.2451C98.7801 11.197 98.6145 11.1519 98.4334 11.1095C98.2529 11.0674 98.054 11.0462 97.8372 11.0462C97.584 11.0462 97.3309 11.0977 97.0778 11.2C96.8246 11.3027 96.5627 11.4623 96.2914 11.679C96.0201 11.8958 95.737 12.1853 95.4417 12.5469C95.1462 12.9084 94.8301 13.3545 94.4928 13.8846V23.9364C94.4928 24.0569 94.4568 24.1626 94.3844 24.2529C94.312 24.3431 94.1881 24.4185 94.0134 24.4787C93.8384 24.5393 93.6068 24.5841 93.3176 24.6141C93.0284 24.6444 92.6605 24.6595 92.2148 24.6595C91.7691 24.6595 91.4015 24.6444 91.1123 24.6141C90.8232 24.5841 90.5906 24.539 90.4162 24.4787C90.2415 24.4185 90.1179 24.3434 90.0455 24.2529C89.9732 24.1623 89.9372 24.0569 89.9372 23.9364V7.80981C89.9372 7.68964 89.9671 7.58394 90.0277 7.49338C90.088 7.40283 90.1964 7.32776 90.3532 7.2675C90.5098 7.20725 90.7114 7.16214 90.9588 7.13184C91.2056 7.10188 91.5163 7.08673 91.8899 7.08673C92.2757 7.08673 92.5952 7.10188 92.8483 7.13184C93.1015 7.16214 93.2974 7.20725 93.4358 7.2675C93.5744 7.32776 93.6738 7.40283 93.7343 7.49338C93.7946 7.58394 93.8249 7.68964 93.8249 7.80981V9.81647C94.2467 9.2139 94.6446 8.7167 95.0183 8.32486C95.3912 7.93336 95.7471 7.62298 96.0847 7.39374C96.422 7.16483 96.7596 7.00527 97.0973 6.91471C97.4346 6.82416 97.7722 6.77905 98.1099 6.77905C98.2664 6.77905 98.4351 6.78814 98.6158 6.80632C98.7966 6.8245 98.9834 6.85479 99.1763 6.89687C99.3689 6.93929 99.5378 6.98743 99.6826 7.04162C99.8273 7.09582 99.9327 7.15339 99.9987 7.21331C100.065 7.27356 100.113 7.33954 100.143 7.41192C100.174 7.48429 100.201 7.5836 100.225 7.71017C100.249 7.83674 100.267 8.0266 100.279 8.27975C100.289 8.5329 100.296 8.8766 100.296 9.31051Z" fill="#7E22CE"/>
<path d="M114 19.381C114 20.297 113.827 21.1049 113.484 21.8038C113.141 22.5029 112.656 23.0873 112.029 23.5573C111.402 24.0272 110.661 24.38 109.806 24.6149C108.95 24.8499 108.021 24.9677 107.021 24.9677C106.418 24.9677 105.843 24.9223 105.295 24.8321C104.746 24.7415 104.255 24.6274 103.821 24.4887C103.387 24.35 103.026 24.2083 102.736 24.0635C102.447 23.9188 102.236 23.7835 102.103 23.6569C101.971 23.5303 101.869 23.3314 101.796 23.0604C101.724 22.7894 101.688 22.3885 101.688 21.8583C101.688 21.5089 101.7 21.2284 101.724 21.0174C101.748 20.8067 101.784 20.6377 101.832 20.5111C101.88 20.3849 101.941 20.3004 102.013 20.2583C102.085 20.2162 102.176 20.195 102.284 20.195C102.417 20.195 102.613 20.2704 102.872 20.4209C103.131 20.5717 103.453 20.737 103.839 20.9181C104.225 21.0988 104.674 21.2678 105.186 21.4244C105.698 21.5812 106.28 21.6593 106.931 21.6593C107.34 21.6593 107.705 21.6173 108.024 21.5328C108.344 21.4486 108.621 21.3281 108.856 21.1712C109.091 21.0147 109.269 20.8157 109.39 20.5747C109.51 20.3337 109.57 20.0566 109.57 19.7432C109.57 19.3817 109.459 19.0713 109.236 18.8121C109.013 18.5532 108.718 18.3274 108.35 18.1341C107.982 17.9416 107.566 17.7608 107.102 17.5918C106.638 17.4232 106.162 17.2363 105.674 17.0313C105.186 16.8267 104.71 16.5914 104.246 16.3261C103.782 16.0612 103.366 15.7357 102.999 15.3499C102.631 14.9641 102.336 14.5002 102.113 13.9576C101.89 13.4153 101.778 12.7646 101.778 12.0051C101.778 11.2339 101.929 10.5256 102.23 9.88064C102.532 9.23599 102.966 8.68459 103.532 8.22644C104.099 7.76862 104.788 7.4128 105.602 7.15999C106.415 6.90685 107.329 6.78027 108.341 6.78027C108.847 6.78027 109.338 6.81629 109.814 6.88867C110.29 6.96104 110.721 7.05126 111.107 7.15999C111.493 7.26872 111.818 7.38587 112.083 7.51244C112.348 7.63902 112.538 7.74741 112.652 7.83797C112.767 7.92852 112.848 8.01874 112.897 8.10929C112.945 8.19984 112.981 8.30824 113.005 8.43481C113.029 8.56138 113.05 8.71825 113.069 8.90475C113.086 9.09158 113.095 9.32352 113.095 9.60056C113.095 9.92608 113.086 10.1913 113.069 10.396C113.05 10.601 113.02 10.7636 112.978 10.8841C112.936 11.0046 112.878 11.0861 112.806 11.1282C112.734 11.1706 112.649 11.1915 112.553 11.1915C112.444 11.1915 112.275 11.1282 112.047 11.0016C111.817 10.875 111.531 10.7394 111.188 10.595C110.844 10.4502 110.447 10.3146 109.994 10.1883C109.542 10.0621 109.027 9.99846 108.449 9.99846C108.039 9.99846 107.683 10.0409 107.382 10.125C107.081 10.2095 106.833 10.33 106.641 10.4866C106.448 10.6431 106.303 10.8272 106.207 11.038C106.11 11.249 106.062 11.4749 106.062 11.7159C106.062 12.0896 106.177 12.403 106.406 12.6558C106.635 12.909 106.936 13.1322 107.31 13.3247C107.683 13.5176 108.108 13.6984 108.585 13.867C109.061 14.0357 109.543 14.2195 110.031 14.4184C110.519 14.6174 111.001 14.8496 111.477 15.1146C111.953 15.3798 112.378 15.705 112.751 16.0908C113.125 16.4766 113.427 16.9378 113.656 17.4737C113.885 18.0099 114 18.6458 114 19.381Z" fill="#7E22CE"/>
<path d="M132.712 23.9365C132.712 24.057 132.681 24.1627 132.621 24.253C132.56 24.3435 132.455 24.4186 132.305 24.4788C132.154 24.5394 131.955 24.5842 131.708 24.6142C131.461 24.6445 131.151 24.6596 130.777 24.6596C130.379 24.6596 130.057 24.6445 129.81 24.6142C129.563 24.5842 129.367 24.5391 129.222 24.4788C129.078 24.4186 128.975 24.3435 128.915 24.253C128.854 24.1624 128.825 24.057 128.825 23.9365V22.0746C127.932 23.0391 127.026 23.7621 126.104 24.2439C125.182 24.7256 124.226 24.9669 123.238 24.9669C122.129 24.9669 121.198 24.7862 120.445 24.4246C119.691 24.0631 119.082 23.5689 118.619 22.9421C118.155 22.3156 117.823 21.5892 117.625 20.7634C117.426 19.938 117.326 18.9103 117.326 17.6809V7.81024C117.326 7.69006 117.359 7.58436 117.426 7.49381C117.492 7.40325 117.612 7.32819 117.787 7.26793C117.962 7.20767 118.197 7.16256 118.492 7.13227C118.787 7.10231 119.152 7.08716 119.586 7.08716C120.032 7.08716 120.399 7.10231 120.689 7.13227C120.978 7.16256 121.21 7.20767 121.385 7.26793C121.559 7.32819 121.683 7.40325 121.755 7.49381C121.828 7.58436 121.864 7.69006 121.864 7.81024V16.9222C121.864 17.7657 121.918 18.4107 122.026 18.8564C122.135 19.3025 122.3 19.6852 122.523 20.0047C122.746 20.3241 123.03 20.5712 123.373 20.7459C123.717 20.921 124.117 21.0082 124.575 21.0082C125.154 21.0082 125.735 20.7974 126.32 20.3756C126.904 19.9538 127.528 19.3392 128.191 18.5316V7.81024C128.191 7.69006 128.225 7.58436 128.291 7.49381C128.357 7.40325 128.477 7.32819 128.652 7.26793C128.827 7.20767 129.059 7.16256 129.348 7.13227C129.638 7.10231 130.005 7.08716 130.451 7.08716C130.897 7.08716 131.264 7.10231 131.554 7.13227C131.843 7.16256 132.072 7.20767 132.241 7.26793C132.409 7.32819 132.53 7.40325 132.602 7.49381C132.675 7.58436 132.711 7.69006 132.711 7.81024V23.9365H132.712Z" fill="#7E22CE"/>
<path d="M151.025 23.9908C151.025 24.1598 150.964 24.2925 150.844 24.3887C150.724 24.4853 150.534 24.5544 150.275 24.5964C150.015 24.6388 149.633 24.6597 149.127 24.6597C148.585 24.6597 148.19 24.6388 147.943 24.5964C147.696 24.5544 147.521 24.4853 147.418 24.3887C147.316 24.2925 147.264 24.1598 147.264 23.9908V22.7073C146.602 23.4186 145.845 23.9727 144.996 24.3706C144.146 24.7684 143.203 24.9671 142.167 24.9671C141.31 24.9671 140.524 24.8553 139.807 24.6325C139.09 24.4096 138.469 24.0784 137.945 23.6384C137.421 23.1984 137.014 22.6531 136.725 22.0024C136.436 21.3513 136.291 20.5922 136.291 19.7244C136.291 18.7845 136.474 17.9678 136.842 17.2747C137.21 16.5819 137.758 16.0093 138.487 15.5572C139.217 15.1055 140.123 14.7709 141.208 14.5541C142.293 14.3373 143.552 14.2286 144.987 14.2286H146.56V13.2523C146.56 12.746 146.509 12.303 146.406 11.9236C146.304 11.5439 146.135 11.2275 145.9 10.9743C145.665 10.7212 145.351 10.5344 144.96 10.4139C144.568 10.2933 144.083 10.2331 143.505 10.2331C142.746 10.2331 142.067 10.3176 141.471 10.4862C140.875 10.6549 140.347 10.8417 139.889 11.0467C139.431 11.2517 139.048 11.4386 138.741 11.6072C138.434 11.7762 138.183 11.8604 137.991 11.8604C137.858 11.8604 137.74 11.8183 137.638 11.7338C137.535 11.6496 137.451 11.5291 137.385 11.3722C137.319 11.2157 137.267 11.0228 137.231 10.7936C137.195 10.5647 137.177 10.3115 137.177 10.0345C137.177 9.66116 137.207 9.36559 137.268 9.14847C137.328 8.93168 137.442 8.73576 137.611 8.56105C137.78 8.38634 138.075 8.19345 138.497 7.98238C138.919 7.77165 139.413 7.57573 139.979 7.39462C140.546 7.21385 141.164 7.06641 141.833 6.95196C142.501 6.8375 143.192 6.78027 143.903 6.78027C145.168 6.78027 146.25 6.90415 147.148 7.1509C148.046 7.39799 148.784 7.77771 149.363 8.28972C149.941 8.80208 150.363 9.46187 150.628 10.2694C150.893 11.077 151.026 12.0354 151.026 13.1439V23.9908H151.025ZM146.56 17.0849H144.824C144.089 17.0849 143.462 17.1391 142.944 17.2475C142.426 17.3559 142.004 17.5188 141.678 17.7356C141.353 17.9524 141.115 18.2146 140.964 18.5219C140.814 18.8293 140.738 19.1817 140.738 19.5796C140.738 20.2546 140.952 20.7851 141.38 21.1705C141.808 21.5563 142.401 21.7492 143.161 21.7492C143.799 21.7492 144.387 21.5866 144.923 21.2611C145.459 20.9356 146.005 20.4596 146.559 19.8328V17.0849H146.56Z" fill="#7E22CE"/>
<path d="M166.916 19.381C166.916 20.297 166.744 21.1049 166.401 21.8038C166.057 22.5029 165.572 23.0873 164.946 23.5573C164.319 24.0272 163.578 24.38 162.722 24.6149C161.866 24.8499 160.938 24.9677 159.938 24.9677C159.335 24.9677 158.76 24.9223 158.211 24.8321C157.663 24.7415 157.172 24.6274 156.738 24.4887C156.304 24.35 155.942 24.2083 155.653 24.0635C155.363 23.9188 155.153 23.7835 155.02 23.6569C154.887 23.5303 154.785 23.3314 154.713 23.0604C154.641 22.7894 154.605 22.3885 154.605 21.8583C154.605 21.5089 154.616 21.2284 154.641 21.0174C154.665 20.8067 154.701 20.6377 154.749 20.5111C154.797 20.3849 154.857 20.3004 154.929 20.2583C155.002 20.2162 155.092 20.195 155.201 20.195C155.333 20.195 155.529 20.2704 155.789 20.4209C156.048 20.5717 156.37 20.737 156.756 20.9181C157.141 21.0988 157.59 21.2678 158.103 21.4244C158.615 21.5812 159.196 21.6593 159.847 21.6593C160.257 21.6593 160.622 21.6173 160.941 21.5328C161.26 21.4486 161.538 21.3281 161.773 21.1712C162.008 21.0147 162.186 20.8157 162.306 20.5747C162.426 20.3337 162.487 20.0566 162.487 19.7432C162.487 19.3817 162.375 19.0713 162.153 18.8121C161.929 18.5532 161.634 18.3274 161.267 18.1341C160.899 17.9416 160.483 17.7608 160.019 17.5918C159.555 17.4232 159.079 17.2363 158.591 17.0313C158.103 16.8267 157.627 16.5914 157.163 16.3261C156.699 16.0612 156.283 15.7357 155.915 15.3499C155.548 14.9641 155.252 14.5002 155.029 13.9576C154.806 13.4153 154.695 12.7646 154.695 12.0051C154.695 11.2339 154.846 10.5256 155.147 9.88064C155.448 9.23599 155.882 8.68459 156.449 8.22644C157.015 7.76862 157.705 7.4128 158.519 7.15999C159.332 6.90685 160.245 6.78027 161.258 6.78027C161.764 6.78027 162.255 6.81629 162.731 6.88867C163.207 6.96104 163.638 7.05126 164.024 7.15999C164.41 7.26839 164.735 7.38587 165 7.51244C165.265 7.63902 165.455 7.74741 165.569 7.83797C165.684 7.92852 165.765 8.01874 165.813 8.10929C165.862 8.19984 165.898 8.30824 165.922 8.43481C165.946 8.56138 165.967 8.71825 165.985 8.90475C166.003 9.09158 166.012 9.32352 166.012 9.60056C166.012 9.92608 166.003 10.1913 165.985 10.396C165.967 10.601 165.937 10.7636 165.895 10.8841C165.852 11.0046 165.795 11.0861 165.723 11.1282C165.65 11.1706 165.566 11.1915 165.469 11.1915C165.361 11.1915 165.192 11.1282 164.963 11.0016C164.734 10.875 164.448 10.7394 164.104 10.595C163.761 10.4502 163.363 10.3146 162.911 10.1883C162.459 10.0617 161.944 9.99846 161.366 9.99846C160.955 9.99846 160.6 10.0409 160.299 10.125C159.997 10.2095 159.75 10.33 159.557 10.4866C159.365 10.6431 159.22 10.8272 159.124 11.038C159.027 11.249 158.979 11.4749 158.979 11.7159C158.979 12.0896 159.093 12.403 159.322 12.6558C159.551 12.909 159.853 13.1322 160.227 13.3247C160.6 13.5176 161.025 13.6984 161.501 13.867C161.977 14.0357 162.46 14.2195 162.948 14.4184C163.435 14.6174 163.917 14.8496 164.394 15.1146C164.87 15.3798 165.295 15.705 165.668 16.0908C166.042 16.4766 166.343 16.9378 166.572 17.4737C166.802 18.0099 166.916 18.6458 166.916 19.381Z" fill="#7E22CE"/>
<path d="M175.233 2.35002C175.233 3.26599 175.046 3.89885 174.672 4.24827C174.299 4.59803 173.605 4.77274 172.593 4.77274C171.568 4.77274 170.878 4.60409 170.523 4.26645C170.167 3.92915 169.99 3.32052 169.99 2.44057C169.99 1.52494 170.173 0.889041 170.541 0.533222C170.909 0.177741 171.605 0 172.63 0C173.642 0 174.329 0.171681 174.69 0.515381C175.052 0.858407 175.233 1.4704 175.233 2.35002ZM174.889 23.9361C174.889 24.0566 174.853 24.1623 174.781 24.2525C174.709 24.3427 174.585 24.4182 174.41 24.4784C174.235 24.539 174.003 24.5838 173.714 24.6137C173.425 24.644 173.057 24.6592 172.612 24.6592C172.166 24.6592 171.798 24.644 171.509 24.6137C171.22 24.5838 170.987 24.5387 170.813 24.4784C170.638 24.4182 170.514 24.3431 170.442 24.2525C170.37 24.162 170.334 24.0566 170.334 23.9361V7.84584C170.334 7.72567 170.37 7.61996 170.442 7.52941C170.514 7.43886 170.638 7.36076 170.813 7.29444C170.988 7.22813 171.22 7.17696 171.509 7.1406C171.798 7.10425 172.166 7.0864 172.612 7.0864C173.057 7.0864 173.425 7.10458 173.714 7.1406C174.003 7.17662 174.236 7.22813 174.41 7.29444C174.585 7.36076 174.709 7.43886 174.781 7.52941C174.853 7.61996 174.889 7.72567 174.889 7.84584V23.9361Z" fill="#7E22CE"/>
<path d="M194.27 7.79172C194.27 7.85232 194.267 7.92469 194.261 8.00885C194.255 8.09335 194.243 8.18693 194.225 8.28926C194.207 8.39194 194.183 8.50942 194.153 8.64172C194.122 8.77435 194.083 8.92482 194.035 9.09347L189.19 23.683C189.129 23.888 189.048 24.054 188.946 24.1806C188.843 24.3071 188.674 24.4065 188.439 24.4788C188.204 24.5512 187.885 24.599 187.481 24.6236C187.077 24.6475 186.55 24.6596 185.899 24.6596C185.26 24.6596 184.739 24.6444 184.335 24.6142C183.931 24.5842 183.615 24.533 183.386 24.4606C183.157 24.3883 182.991 24.289 182.889 24.1624C182.786 24.0358 182.705 23.8759 182.645 23.683L177.799 9.09347C177.727 8.85245 177.669 8.63566 177.627 8.44277C177.585 8.25021 177.561 8.11152 177.555 8.02703C177.549 7.94287 177.546 7.86444 177.546 7.79206C177.546 7.67188 177.579 7.56618 177.646 7.47563C177.712 7.38508 177.829 7.31001 177.998 7.24975C178.167 7.18949 178.399 7.14741 178.694 7.12318C178.989 7.09928 179.36 7.08716 179.806 7.08716C180.3 7.08716 180.698 7.10231 180.999 7.13227C181.301 7.16256 181.539 7.20464 181.713 7.25884C181.888 7.31304 182.012 7.39147 182.084 7.49381C182.156 7.59648 182.217 7.71969 182.265 7.86444L185.935 19.7061L186.043 20.1582L186.152 19.7061L189.767 7.86444C189.803 7.71969 189.861 7.59648 189.939 7.49381C190.017 7.39147 190.141 7.31304 190.31 7.25884C190.479 7.20464 190.704 7.16256 190.988 7.13227C191.271 7.10231 191.642 7.08716 192.1 7.08716C192.546 7.08716 192.91 7.09928 193.194 7.12318C193.477 7.14741 193.697 7.18949 193.854 7.24975C194.01 7.31001 194.119 7.38508 194.179 7.47563C194.24 7.56585 194.27 7.67155 194.27 7.79172Z" fill="#7E22CE"/>
<path d="M211.5 15.4037C211.5 15.9582 211.376 16.3682 211.129 16.6331C210.882 16.8984 210.541 17.031 210.107 17.031H200.291C200.291 17.7181 200.372 18.3418 200.535 18.902C200.698 19.4625 200.957 19.9388 201.312 20.3303C201.668 20.7222 202.126 21.0204 202.686 21.2251C203.247 21.4301 203.918 21.5324 204.702 21.5324C205.498 21.5324 206.196 21.4755 206.799 21.3607C207.402 21.2463 207.923 21.1197 208.363 20.981C208.803 20.8427 209.167 20.7161 209.457 20.6013C209.746 20.4869 209.981 20.4296 210.162 20.4296C210.27 20.4296 210.361 20.4505 210.433 20.4929C210.506 20.5353 210.566 20.6104 210.614 20.7188C210.662 20.8272 210.695 20.981 210.714 21.18C210.732 21.3789 210.741 21.629 210.741 21.9303C210.741 22.1956 210.734 22.4215 210.722 22.6083C210.71 22.7955 210.692 22.955 210.668 23.0873C210.644 23.2203 210.608 23.3314 210.56 23.4219C210.511 23.5125 210.448 23.5997 210.37 23.6838C210.292 23.7683 210.078 23.8828 209.728 24.0275C209.379 24.1723 208.933 24.314 208.391 24.4527C207.848 24.591 207.227 24.7116 206.528 24.8139C205.829 24.9162 205.082 24.9677 204.287 24.9677C202.852 24.9677 201.596 24.787 200.517 24.4254C199.439 24.0639 198.538 23.5159 197.815 22.7803C197.092 22.0451 196.552 21.117 196.196 19.996C195.841 18.8751 195.663 17.5615 195.663 16.0548C195.663 14.6207 195.85 13.3281 196.223 12.1768C196.597 11.0259 197.139 10.0496 197.851 9.24777C198.562 8.44659 199.426 7.83494 200.445 7.4128C201.463 6.99134 202.612 6.78027 203.889 6.78027C205.239 6.78027 206.393 6.97922 207.351 7.37678C208.309 7.77468 209.095 8.32608 209.71 9.03098C210.325 9.73622 210.777 10.5707 211.066 11.5348C211.355 12.4993 211.5 13.5479 211.5 14.6807V15.4037H211.5ZM207.088 14.1016C207.124 12.8245 206.868 11.821 206.32 11.0915C205.771 10.3624 204.925 9.99779 203.78 9.99779C203.201 9.99779 202.698 10.1062 202.27 10.3233C201.842 10.5404 201.487 10.8326 201.203 11.1999C200.92 11.5678 200.704 12.0014 200.553 12.5016C200.402 13.0019 200.314 13.5354 200.291 14.1016H207.088Z" fill="#7E22CE"/>
<path d="M145.519 44.856C145.519 44.9041 145.507 44.9482 145.483 44.9886C145.459 45.029 145.42 45.061 145.369 45.0849C145.316 45.1091 145.244 45.129 145.152 45.1455C145.059 45.1613 144.944 45.1694 144.808 45.1694C144.663 45.1694 144.545 45.1613 144.452 45.1455C144.36 45.129 144.285 45.1095 144.229 45.0849C144.173 45.061 144.135 45.029 144.115 44.9886C144.094 44.9485 144.084 44.9041 144.084 44.856V38.1426C144.084 37.6289 144.038 37.1603 143.946 36.7385C143.853 36.3167 143.709 35.9551 143.512 35.6538C143.315 35.3522 143.066 35.1193 142.764 34.9547C142.463 34.7901 142.108 34.7079 141.698 34.7079C141.192 34.7079 140.68 34.9048 140.161 35.2984C139.643 35.6922 139.074 36.2709 138.456 37.0337V44.856C138.456 44.9041 138.444 44.9482 138.42 44.9886C138.396 45.029 138.358 45.061 138.305 45.0849C138.253 45.1091 138.181 45.129 138.088 45.1455C137.996 45.1613 137.882 45.1694 137.745 45.1694C137.608 45.1694 137.494 45.1613 137.401 45.1455C137.309 45.129 137.234 45.1095 137.178 45.0849C137.122 45.061 137.084 45.029 137.064 44.9886C137.043 44.9485 137.033 44.9041 137.033 44.856V38.1426C137.033 37.6289 136.985 37.1603 136.889 36.7385C136.792 36.3167 136.646 35.9551 136.449 35.6538C136.252 35.3522 136.003 35.1193 135.701 34.9547C135.4 34.7901 135.045 34.7079 134.634 34.7079C134.128 34.7079 133.616 34.9048 133.098 35.2984C132.58 35.6922 132.015 36.2709 131.405 37.0337V44.856C131.405 44.9041 131.393 44.9482 131.369 44.9886C131.345 45.029 131.306 45.061 131.254 45.0849C131.202 45.1091 131.13 45.129 131.037 45.1455C130.945 45.1613 130.826 45.1694 130.681 45.1694C130.545 45.1694 130.43 45.1613 130.338 45.1455C130.246 45.129 130.171 45.1095 130.115 45.0849C130.058 45.061 130.02 45.029 130 44.9886C129.98 44.9485 129.97 44.9041 129.97 44.856V33.9485C129.97 33.9 129.98 33.8562 130 33.8155C130.02 33.7754 130.058 33.7414 130.115 33.7132C130.171 33.6849 130.241 33.6647 130.326 33.6526C130.41 33.6408 130.521 33.6347 130.657 33.6347C130.794 33.6347 130.906 33.6408 130.995 33.6526C131.083 33.6647 131.151 33.6849 131.199 33.7132C131.248 33.7414 131.282 33.7754 131.302 33.8155C131.322 33.8559 131.332 33.9 131.332 33.9485V35.4913C131.959 34.7921 132.553 34.2858 133.116 33.9724C133.678 33.659 134.237 33.5024 134.791 33.5024C135.249 33.5024 135.657 33.5566 136.015 33.665C136.372 33.7734 136.688 33.9263 136.961 34.1229C137.234 34.3201 137.467 34.5547 137.66 34.8281C137.853 35.1014 138.01 35.4027 138.13 35.7323C138.507 35.3145 138.863 34.9631 139.197 34.6776C139.53 34.3925 139.848 34.1636 140.149 33.9906C140.45 33.8179 140.741 33.6933 141.023 33.6172C141.304 33.5405 141.581 33.5024 141.854 33.5024C142.537 33.5024 143.114 33.623 143.584 33.864C144.054 34.105 144.432 34.4305 144.717 34.8402C145.002 35.2499 145.207 35.7282 145.332 36.2746C145.456 36.8209 145.518 37.3996 145.518 38.0099V44.856H145.519Z" fill="#7E22CE"/>
<path d="M160.488 44.8562C160.488 44.9044 160.477 44.9485 160.452 44.9889C160.428 45.0293 160.388 45.0612 160.332 45.0851C160.276 45.1094 160.199 45.1292 160.103 45.1457C160.007 45.1616 159.89 45.1696 159.753 45.1696C159.609 45.1696 159.49 45.1616 159.398 45.1457C159.305 45.1292 159.231 45.1097 159.175 45.0851C159.119 45.0612 159.079 45.0293 159.054 44.9889C159.03 44.9488 159.018 44.9044 159.018 44.8562V37.5884H151.232V44.8562C151.232 44.9044 151.221 44.9485 151.196 44.9889C151.172 45.0293 151.132 45.0612 151.076 45.0851C151.02 45.1094 150.945 45.1292 150.853 45.1457C150.761 45.1616 150.642 45.1696 150.497 45.1696C150.361 45.1696 150.244 45.1616 150.148 45.1457C150.051 45.1292 149.975 45.1097 149.919 45.0851C149.863 45.0612 149.823 45.0293 149.798 44.9889C149.774 44.9488 149.762 44.9044 149.762 44.8562V29.7419C149.762 29.6937 149.774 29.65 149.798 29.6092C149.823 29.5692 149.863 29.5369 149.919 29.513C149.975 29.4887 150.051 29.4689 150.148 29.4524C150.244 29.4365 150.361 29.4285 150.497 29.4285C150.642 29.4285 150.76 29.4365 150.853 29.4524C150.945 29.4689 151.02 29.4884 151.076 29.513C151.132 29.5369 151.172 29.5692 151.196 29.6092C151.221 29.6496 151.232 29.6937 151.232 29.7419V36.2749H159.018V29.7419C159.018 29.6937 159.03 29.65 159.054 29.6092C159.079 29.5692 159.119 29.5369 159.175 29.513C159.231 29.4887 159.305 29.4689 159.398 29.4524C159.49 29.4365 159.609 29.4285 159.753 29.4285C159.89 29.4285 160.007 29.4365 160.103 29.4524C160.199 29.4689 160.276 29.4884 160.332 29.513C160.388 29.5369 160.428 29.5692 160.452 29.6092C160.477 29.6496 160.488 29.6937 160.488 29.7419V44.8562Z" fill="#7E22CE"/>
<path d="M173.674 38.8412C173.674 39.1304 173.597 39.3293 173.445 39.4377C173.292 39.5461 173.144 39.6003 172.999 39.6003H165.563C165.563 40.2752 165.629 40.8859 165.762 41.4319C165.894 41.9786 166.113 42.4465 166.418 42.8363C166.723 43.2261 167.121 43.5254 167.612 43.7341C168.102 43.9432 168.704 44.0475 169.419 44.0475C169.926 44.0475 170.38 44.0034 170.781 43.9149C171.183 43.8263 171.531 43.728 171.824 43.6197C172.117 43.5113 172.358 43.413 172.547 43.3244C172.736 43.2359 172.871 43.1915 172.951 43.1915C172.999 43.1915 173.043 43.2036 173.084 43.2275C173.124 43.2517 173.156 43.2901 173.18 43.3423C173.204 43.3944 173.222 43.4608 173.234 43.5409C173.246 43.6213 173.252 43.7217 173.252 43.8425C173.252 43.8987 173.248 43.9529 173.24 44.0051C173.232 44.0573 173.222 44.1057 173.21 44.1498C173.198 44.1943 173.18 44.2364 173.156 44.2764C173.132 44.3168 173.1 44.3569 173.059 44.3969C173.019 44.437 172.895 44.5073 172.686 44.6077C172.477 44.7083 172.204 44.8086 171.866 44.9093C171.529 45.0099 171.137 45.0998 170.691 45.1806C170.245 45.2607 169.765 45.3008 169.251 45.3008C168.407 45.3008 167.66 45.1742 167.009 44.9211C166.358 44.6679 165.812 44.2946 165.37 43.8004C164.928 43.3063 164.593 42.6936 164.364 41.9624C164.135 41.2313 164.02 40.3836 164.02 39.4192C164.02 38.4951 164.139 37.6677 164.376 36.9362C164.613 36.205 164.952 35.5843 165.394 35.0743C165.836 34.564 166.369 34.1745 166.991 33.9048C167.614 33.6359 168.307 33.5012 169.07 33.5012C169.89 33.5012 170.589 33.6379 171.167 33.9112C171.746 34.1846 172.222 34.5518 172.596 35.0137C172.969 35.4759 173.242 36.0125 173.415 36.6228C173.588 37.2334 173.674 37.8764 173.674 38.5513V38.8412H173.674ZM172.191 38.4194C172.216 37.2621 171.95 36.3582 171.396 35.7075C170.842 35.0565 170.034 34.7313 168.973 34.7313C168.427 34.7313 167.947 34.8336 167.533 35.0386C167.12 35.2433 166.77 35.5146 166.485 35.8519C166.2 36.1896 165.98 36.5814 165.828 37.0271C165.675 37.4731 165.587 37.937 165.563 38.4194H172.191Z" fill="#7E22CE"/>
<path d="M184.618 44.8561C184.618 44.9362 184.591 44.9989 184.54 45.043C184.487 45.0874 184.419 45.1194 184.335 45.1392C184.25 45.1594 184.136 45.1695 183.991 45.1695C183.854 45.1695 183.738 45.1594 183.641 45.1392C183.545 45.119 183.471 45.0874 183.419 45.043C183.366 44.9989 183.34 44.9366 183.34 44.8561V43.6389C182.85 44.1691 182.31 44.5787 181.72 44.8679C181.129 45.1571 180.516 45.3018 179.881 45.3018C179.311 45.3018 178.799 45.2274 178.345 45.079C177.891 44.9305 177.507 44.7174 177.194 44.4404C176.88 44.1633 176.639 43.8277 176.471 43.4342C176.302 43.0403 176.218 42.5987 176.218 42.1085C176.218 41.5056 176.342 40.9815 176.591 40.5355C176.84 40.0898 177.194 39.7178 177.652 39.4206C178.11 39.1233 178.66 38.9001 179.303 38.7517C179.946 38.6032 180.661 38.5288 181.448 38.5288H183.184V37.5886C183.184 37.1227 183.135 36.711 183.039 36.3532C182.943 35.9957 182.786 35.6964 182.569 35.4554C182.352 35.214 182.071 35.0333 181.725 34.9131C181.38 34.7926 180.958 34.7323 180.46 34.7323C179.978 34.7323 179.544 34.7905 179.158 34.907C178.772 35.0238 178.435 35.1541 178.146 35.2989C177.856 35.4436 177.617 35.5742 177.429 35.6907C177.239 35.8072 177.105 35.8654 177.025 35.8654C176.976 35.8654 176.932 35.8577 176.892 35.8415C176.852 35.8253 176.818 35.795 176.789 35.7509C176.761 35.7068 176.741 35.6506 176.729 35.5823C176.717 35.514 176.711 35.4315 176.711 35.3352C176.711 35.1666 176.723 35.0322 176.747 34.9316C176.771 34.8309 176.833 34.7306 176.934 34.63C177.034 34.5297 177.213 34.4115 177.47 34.2745C177.727 34.1378 178.023 34.0112 178.356 33.8948C178.69 33.7783 179.049 33.6837 179.435 33.6113C179.82 33.5389 180.206 33.5029 180.592 33.5029C181.34 33.5029 181.97 33.5935 182.484 33.7743C182.998 33.955 183.414 34.2142 183.732 34.5519C184.049 34.8892 184.276 35.3049 184.413 35.7994C184.549 36.2936 184.617 36.8541 184.617 37.4806L184.618 44.8561ZM183.184 39.7097H181.195C180.616 39.7097 180.11 39.7619 179.676 39.8663C179.242 39.9709 178.881 40.1238 178.592 40.3241C178.302 40.5254 178.087 40.7661 177.947 41.0472C177.806 41.3286 177.736 41.6497 177.736 42.0113C177.736 42.6381 177.935 43.1383 178.332 43.512C178.73 43.8853 179.29 44.0724 180.014 44.0724C180.584 44.0724 181.116 43.9257 181.61 43.6321C182.105 43.3393 182.629 42.8872 183.183 42.2765V39.7097H183.184Z" fill="#7E22CE"/>
<path d="M190.03 44.8558C190.03 44.9039 190.018 44.948 189.994 44.9884C189.97 45.0288 189.931 45.0608 189.879 45.0847C189.827 45.1089 189.754 45.1288 189.662 45.1453C189.57 45.1611 189.451 45.1692 189.306 45.1692C189.17 45.1692 189.055 45.1611 188.963 45.1453C188.87 45.1288 188.796 45.1093 188.74 45.0847C188.683 45.0608 188.645 45.0288 188.625 44.9884C188.605 44.9484 188.595 44.9039 188.595 44.8558V28.6087C188.595 28.5602 188.605 28.5164 188.625 28.476C188.645 28.4356 188.683 28.4016 188.74 28.3734C188.796 28.3454 188.87 28.3249 188.963 28.3131C189.055 28.301 189.169 28.2949 189.306 28.2949C189.451 28.2949 189.569 28.301 189.662 28.3131C189.754 28.3249 189.827 28.3454 189.879 28.3734C189.931 28.4016 189.97 28.436 189.994 28.476C190.018 28.5161 190.03 28.5602 190.03 28.6087V44.8558Z" fill="#7E22CE"/>
<path d="M199.298 44.2056C199.298 44.3743 199.284 44.5109 199.256 44.6153C199.228 44.72 199.183 44.8024 199.123 44.8624C199.063 44.9223 198.974 44.9792 198.858 45.031C198.741 45.0835 198.607 45.1276 198.454 45.164C198.302 45.2003 198.141 45.228 197.972 45.2481C197.803 45.2683 197.638 45.2784 197.478 45.2784C196.939 45.2784 196.481 45.2061 196.104 45.0613C195.726 44.9166 195.417 44.6978 195.176 44.4045C194.935 44.1113 194.76 43.7397 194.651 43.2896C194.542 42.8396 194.489 42.3094 194.489 41.6984V34.9129H192.862C192.749 34.9129 192.661 34.8628 192.596 34.7621C192.532 34.6618 192.5 34.5113 192.5 34.3104C192.5 34.2057 192.508 34.1154 192.524 34.039C192.54 33.9626 192.564 33.8983 192.596 33.8461C192.629 33.794 192.667 33.7556 192.711 33.7317C192.755 33.7075 192.805 33.6957 192.862 33.6957H194.489V31.0201C194.489 30.9717 194.499 30.9279 194.519 30.8872C194.539 30.8471 194.577 30.8131 194.633 30.7848C194.689 30.7565 194.764 30.7364 194.856 30.7242C194.948 30.7125 195.063 30.7061 195.2 30.7061C195.345 30.7061 195.463 30.7125 195.556 30.7242C195.648 30.7364 195.72 30.7565 195.773 30.7848C195.825 30.8131 195.863 30.8471 195.887 30.8872C195.911 30.9276 195.923 30.9717 195.923 31.0201V33.6957H198.936C198.993 33.6957 199.043 33.7075 199.087 33.7317C199.131 33.7556 199.169 33.794 199.201 33.8461C199.234 33.8983 199.258 33.963 199.274 34.039C199.29 34.1151 199.298 34.2057 199.298 34.3104C199.298 34.5113 199.264 34.6618 199.195 34.7621C199.127 34.8628 199.04 34.9129 198.936 34.9129H195.923V41.5055C195.923 42.3333 196.041 42.9641 196.279 43.398C196.515 43.8316 196.947 44.0487 197.574 44.0487C197.767 44.0487 197.942 44.0289 198.099 43.9885C198.255 43.9484 198.394 43.904 198.515 43.8558C198.635 43.8074 198.737 43.7636 198.822 43.7229C198.906 43.6828 198.981 43.6626 199.045 43.6626C199.085 43.6626 199.121 43.6707 199.153 43.6865C199.185 43.703 199.211 43.733 199.231 43.7771C199.252 43.8215 199.267 43.8777 199.28 43.9461C199.292 44.0147 199.298 44.1012 199.298 44.2056Z" fill="#7E22CE"/>
<path d="M211.001 44.8558C211.001 44.9039 210.989 44.948 210.965 44.9884C210.941 45.0288 210.902 45.0608 210.85 45.0847C210.798 45.1089 210.726 45.1288 210.633 45.1453C210.541 45.1611 210.426 45.1692 210.289 45.1692C210.145 45.1692 210.026 45.1611 209.934 45.1453C209.841 45.1288 209.769 45.1093 209.717 45.0847C209.664 45.0608 209.626 45.0288 209.602 44.9884C209.578 44.9484 209.566 44.9039 209.566 44.8558V38.3834C209.566 37.7085 209.514 37.1597 209.409 36.7379C209.305 36.3161 209.148 35.9546 208.939 35.6533C208.73 35.3517 208.463 35.1188 208.138 34.9541C207.812 34.7895 207.433 34.7074 206.999 34.7074C206.445 34.7074 205.89 34.9043 205.336 35.2978C204.781 35.6917 204.199 36.2704 203.588 37.0332V44.8554C203.588 44.9036 203.576 44.9477 203.552 44.9881C203.528 45.0285 203.49 45.0605 203.438 45.0844C203.385 45.1086 203.313 45.1285 203.22 45.145C203.128 45.1608 203.01 45.1689 202.865 45.1689C202.728 45.1689 202.614 45.1608 202.521 45.145C202.429 45.1285 202.354 45.1089 202.298 45.0844C202.242 45.0605 202.204 45.0285 202.184 44.9881C202.163 44.948 202.154 44.9036 202.154 44.8554V28.6087C202.154 28.5602 202.163 28.5164 202.184 28.476C202.204 28.4356 202.242 28.4016 202.298 28.3734C202.354 28.3454 202.429 28.3249 202.521 28.3131C202.614 28.301 202.728 28.2949 202.865 28.2949C203.01 28.2949 203.128 28.301 203.22 28.3131C203.313 28.3249 203.385 28.3454 203.438 28.3734C203.49 28.4016 203.528 28.436 203.552 28.476C203.576 28.5161 203.588 28.5602 203.588 28.6087V35.4187C204.183 34.7599 204.777 34.2755 205.372 33.9665C205.967 33.6571 206.561 33.5023 207.156 33.5023C207.871 33.5023 208.474 33.6228 208.964 33.8638C209.454 34.1048 209.85 34.4303 210.151 34.84C210.452 35.2497 210.669 35.7281 210.802 36.2744C210.935 36.8208 211.001 37.4795 211.001 38.2508V44.8558Z" fill="#7E22CE"/>
</svg>
