<svg width="283" height="64" viewBox="0 0 283 64" fill="none" xmlns="http://www.w3.org/2000/svg">
<path d="M26.0571 6.89065V13.4285C26.0571 14.0254 26.5797 14.4872 27.1719 14.4135L27.2451 14.4044C33.9299 13.6036 36.8891 22.6169 31.0626 25.9907C29.7781 26.7345 28.1354 27.6253 25.894 27.9525C24.2836 28.1874 23.6615 28.3667 21.384 28.6892C9.32449 30.3961 -2.46864 39.3171 0.449084 63.9207C0.449084 63.9207 6.35112 44.4145 23.0561 39.613L30.266 37.849C31.0736 37.6512 32.399 37.3449 33.2147 37.1832C36.0563 36.6201 46.0213 33.9254 47.6102 23.6342C48.2894 19.235 47.3239 14.6817 44.6549 11.1191C41.857 7.38526 36.5604 3.73608 26.8271 5.91997C26.3767 6.0208 26.0571 6.42933 26.0571 6.89065Z" fill="white"/>
<path d="M24.1164 7.66585L23.9742 13.9146C23.9623 14.4358 23.6023 14.8848 23.0963 15.0099L18.2234 16.2126C17.7269 16.3353 17.3697 16.77 17.3464 17.2808L17.1338 21.8797C17.1096 22.4024 16.7377 22.8433 16.2264 22.955L10.3824 24.2329C9.63904 24.3956 8.9442 23.8073 8.98178 23.0478L9.16583 19.3082C9.20387 18.5382 8.49144 17.948 7.74239 18.1283L3.25285 19.2069C2.52378 19.3819 1.82371 18.8269 1.82799 18.0774L1.86319 11.597C1.86604 11.0577 2.24175 10.5921 2.7687 10.4756L8.50571 9.20485C9.02458 9.08975 9.39839 8.63557 9.41076 8.10386L9.54107 2.51381C9.55533 1.91219 10.029 1.42186 10.6297 1.38762L16.6459 1.04282C17.3283 1.00382 17.8957 1.56264 17.8662 2.24558L17.6988 6.13731C17.666 6.89635 18.3623 7.47942 19.1037 7.31439L22.711 6.51207C23.4425 6.34895 24.1335 6.91585 24.1164 7.66585Z" fill="white"/>
<path d="M80.4968 11.6723C80.4968 13.5285 80.2072 15.1712 79.6284 16.6018C79.0491 18.0319 78.2064 19.237 77.0997 20.2158C75.993 21.1955 74.6347 21.9398 73.0263 22.4506C71.4169 22.9613 69.5226 23.2167 67.343 23.2167H64.5846V33.7653C64.5846 33.9355 64.5294 34.0891 64.4186 34.2251C64.3078 34.3616 64.1247 34.4725 63.8693 34.5571C63.6139 34.6427 63.2729 34.7102 62.8478 34.7616C62.4226 34.813 61.8776 34.8382 61.2132 34.8382C60.5659 34.8382 60.0256 34.8125 59.5914 34.7616C59.1572 34.7107 58.8119 34.6427 58.5565 34.5571C58.3011 34.472 58.1223 34.3616 58.0201 34.2251C57.9178 34.0891 57.8669 33.936 57.8669 33.7653V4.03535C57.8669 3.23493 58.0752 2.63522 58.4928 2.23477C58.9099 1.8348 59.4587 1.63458 60.1402 1.63458H67.9304C68.7132 1.63458 69.4589 1.66454 70.1651 1.72399C70.8714 1.78392 71.7194 1.91185 72.7067 2.10732C73.694 2.30326 74.6946 2.66518 75.7081 3.19308C76.7211 3.72098 77.5853 4.38966 78.3005 5.19816C79.0158 6.00713 79.5604 6.95212 79.9356 8.03313C80.3089 9.11414 80.4968 10.3274 80.4968 11.6723ZM73.4724 12.1574C73.4724 10.9994 73.2679 10.0463 72.8593 9.29677C72.4508 8.54772 71.9481 7.99413 71.3527 7.63649C70.7563 7.27885 70.1304 7.05342 69.4751 6.95973C68.8197 6.86652 68.1425 6.81943 67.4443 6.81943H64.5837V18.0324H67.5975C68.6704 18.0324 69.5688 17.8878 70.2921 17.5981C71.0155 17.309 71.6081 16.9047 72.067 16.3849C72.5269 15.8656 72.8755 15.2445 73.1143 14.5206C73.353 13.7968 73.4724 13.0092 73.4724 12.1574Z" fill="white"/>
<path d="M105.527 21.7615C105.527 22.5448 105.352 23.1241 105.003 23.4984C104.654 23.8731 104.173 24.0605 103.56 24.0605H89.6908C89.6908 25.0312 89.8059 25.9124 90.0361 26.7038C90.2658 27.4957 90.632 28.1686 91.1347 28.7217C91.6369 29.2753 92.2837 29.6967 93.0756 29.9858C93.8674 30.2755 94.8162 30.4201 95.9234 30.4201C97.0472 30.4201 98.0345 30.3397 98.8858 30.1775C99.7371 30.0158 100.474 29.837 101.095 29.641C101.717 29.4456 102.233 29.2668 102.641 29.1046C103.05 28.9429 103.382 28.862 103.637 28.862C103.79 28.862 103.918 28.8915 104.02 28.9514C104.123 29.0114 104.208 29.1174 104.276 29.2706C104.344 29.4237 104.391 29.641 104.416 29.9221C104.442 30.2032 104.454 30.5566 104.454 30.9822C104.454 31.357 104.445 31.6761 104.429 31.94C104.412 32.2045 104.386 32.4299 104.352 32.6168C104.318 32.8047 104.267 32.9616 104.199 33.0895C104.131 33.2175 104.042 33.3406 103.931 33.4595C103.821 33.5789 103.518 33.7406 103.025 33.9451C102.531 34.1496 101.901 34.3498 101.134 34.5458C100.368 34.7412 99.4908 34.9115 98.5039 35.0561C97.5161 35.2007 96.4603 35.2734 95.3365 35.2734C93.31 35.2734 91.5352 35.018 90.0114 34.5073C88.4871 33.9965 87.2144 33.2222 86.1929 32.1831C85.1713 31.1444 84.409 29.8332 83.9067 28.2495C83.404 26.6658 83.1534 24.81 83.1534 22.6813C83.1534 20.6553 83.4174 18.829 83.9453 17.2025C84.4727 15.5765 85.2389 14.1973 86.2438 13.0645C87.2482 11.9326 88.47 11.0684 89.9091 10.472C91.3478 9.87659 92.97 9.5784 94.7744 9.5784C96.6815 9.5784 98.3118 9.85947 99.6658 10.4211C101.019 10.9833 102.131 11.7623 102.999 12.7582C103.867 13.7545 104.506 14.9335 104.914 16.2956C105.323 17.6582 105.527 19.1396 105.527 20.74V21.7615H105.527ZM99.2948 19.9219C99.3457 18.1176 98.9843 16.6998 98.2095 15.6692C97.4343 14.6391 96.2382 14.1241 94.6208 14.1241C93.8037 14.1241 93.0922 14.2772 92.4882 14.584C91.8842 14.8907 91.3815 15.3035 90.9816 15.8224C90.5811 16.3422 90.2749 16.9548 90.0618 17.6615C89.8487 18.3682 89.7251 19.122 89.6913 19.9219H99.2948Z" fill="white"/>
<path d="M125.449 13.1539C125.449 13.7669 125.432 14.2696 125.399 14.661C125.364 15.0529 125.313 15.3592 125.245 15.5803C125.177 15.802 125.088 15.9551 124.978 16.0402C124.867 16.1258 124.726 16.1682 124.556 16.1682C124.419 16.1682 124.266 16.1387 124.096 16.0788C123.926 16.0193 123.734 15.9556 123.521 15.8871C123.308 15.8191 123.074 15.7554 122.818 15.6954C122.564 15.636 122.283 15.606 121.976 15.606C121.619 15.606 121.261 15.6788 120.903 15.8234C120.546 15.9684 120.176 16.1939 119.792 16.5001C119.409 16.8064 119.009 17.2154 118.592 17.7262C118.174 18.237 117.728 18.8671 117.251 19.6162V33.8172C117.251 33.9875 117.2 34.1368 117.098 34.2643C116.996 34.3917 116.821 34.4983 116.574 34.5834C116.327 34.669 116 34.7322 115.591 34.7746C115.182 34.8174 114.663 34.8388 114.033 34.8388C113.403 34.8388 112.884 34.8174 112.475 34.7746C112.067 34.7322 111.738 34.6685 111.492 34.5834C111.245 34.4983 111.071 34.3922 110.968 34.2643C110.866 34.1363 110.815 33.9875 110.815 33.8172V11.0337C110.815 10.8639 110.857 10.7146 110.943 10.5867C111.028 10.4587 111.181 10.3527 111.403 10.2676C111.624 10.1824 111.909 10.1187 112.259 10.0759C112.607 10.0336 113.046 10.0122 113.574 10.0122C114.119 10.0122 114.57 10.0336 114.928 10.0759C115.286 10.1187 115.562 10.1824 115.758 10.2676C115.954 10.3527 116.094 10.4587 116.18 10.5867C116.265 10.7146 116.308 10.8639 116.308 11.0337V13.8687C116.904 13.0174 117.466 12.315 117.994 11.7614C118.521 11.2083 119.023 10.7698 119.5 10.4459C119.977 10.1225 120.454 9.89708 120.931 9.76915C121.407 9.64121 121.884 9.57748 122.361 9.57748C122.583 9.57748 122.821 9.59032 123.076 9.61601C123.332 9.64169 123.596 9.68449 123.868 9.74394C124.14 9.80386 124.379 9.87187 124.583 9.94844C124.788 10.025 124.937 10.1063 125.03 10.191C125.124 10.2761 125.192 10.3693 125.234 10.4716C125.277 10.5738 125.315 10.7141 125.35 10.893C125.383 11.0718 125.409 11.34 125.426 11.6977C125.44 12.0553 125.449 12.5409 125.449 13.1539Z" fill="white"/>
<path d="M144.81 27.3806C144.81 28.6747 144.567 29.8161 144.082 30.8034C143.597 31.7912 142.911 32.6168 142.026 33.2807C141.141 33.9447 140.094 34.4431 138.885 34.775C137.676 35.107 136.364 35.2735 134.951 35.2735C134.1 35.2735 133.287 35.2093 132.512 35.0818C131.737 34.9539 131.044 34.7926 130.431 34.5967C129.817 34.4008 129.307 34.2005 128.898 33.996C128.489 33.7915 128.191 33.6003 128.004 33.4215C127.816 33.2427 127.672 32.9616 127.569 32.5788C127.467 32.1959 127.416 31.6295 127.416 30.8805C127.416 30.3868 127.433 29.9906 127.467 29.6924C127.501 29.3947 127.552 29.156 127.62 28.9772C127.688 28.7988 127.773 28.6794 127.876 28.62C127.978 28.5605 128.105 28.5306 128.259 28.5306C128.446 28.5306 128.723 28.6371 129.089 28.8497C129.455 29.0628 129.911 29.2963 130.456 29.5521C131.001 29.8075 131.635 30.0463 132.359 30.2674C133.082 30.4891 133.904 30.5994 134.824 30.5994C135.402 30.5994 135.917 30.5399 136.369 30.4206C136.82 30.3017 137.211 30.1314 137.544 29.9098C137.876 29.6886 138.127 29.4076 138.297 29.067C138.467 28.7265 138.553 28.3351 138.553 27.8923C138.553 27.3816 138.395 26.9431 138.08 26.5769C137.765 26.2111 137.348 25.892 136.829 25.619C136.309 25.347 135.721 25.0916 135.066 24.8529C134.41 24.6146 133.738 24.3506 133.049 24.061C132.359 23.7719 131.686 23.4394 131.031 23.0647C130.375 22.6904 129.788 22.2305 129.268 21.6855C128.749 21.1404 128.332 20.4851 128.017 19.7184C127.702 18.9523 127.544 18.0329 127.544 16.96C127.544 15.8704 127.757 14.8698 128.183 13.9586C128.609 13.0478 129.222 12.2688 130.022 11.6216C130.822 10.9748 131.797 10.4721 132.946 10.1149C134.095 9.75725 135.386 9.57843 136.816 9.57843C137.531 9.57843 138.225 9.62932 138.897 9.73157C139.57 9.83382 140.179 9.96128 140.724 10.1149C141.269 10.2685 141.728 10.434 142.103 10.6128C142.477 10.7917 142.746 10.9448 142.907 11.0727C143.068 11.2007 143.184 11.3281 143.252 11.456C143.32 11.584 143.371 11.7371 143.405 11.9159C143.439 12.0948 143.469 12.3164 143.495 12.5799C143.52 12.8438 143.533 13.1715 143.533 13.5629C143.533 14.0228 143.52 14.3976 143.495 14.6867C143.469 14.9763 143.426 15.2061 143.366 15.3763C143.307 15.5466 143.226 15.6617 143.124 15.7211C143.022 15.781 142.902 15.8105 142.766 15.8105C142.613 15.8105 142.374 15.7211 142.051 15.5423C141.727 15.3635 141.323 15.1718 140.838 14.9678C140.352 14.7633 139.791 14.5716 139.152 14.3933C138.513 14.2149 137.785 14.125 136.968 14.125C136.389 14.125 135.887 14.185 135.461 14.3039C135.035 14.4232 134.686 14.5935 134.414 14.8146C134.142 15.0358 133.937 15.2959 133.801 15.5937C133.665 15.8919 133.596 16.211 133.596 16.5515C133.596 17.0794 133.758 17.5222 134.082 17.8793C134.405 18.237 134.831 18.5523 135.36 18.8243C135.887 19.0968 136.487 19.3522 137.16 19.5905C137.833 19.8288 138.514 20.0884 139.203 20.3695C139.893 20.6506 140.574 20.9787 141.247 21.353C141.919 21.7278 142.519 22.1872 143.047 22.7322C143.574 23.2772 144.001 23.9288 144.324 24.6859C144.648 25.4435 144.81 26.3419 144.81 27.3806Z" fill="white"/>
<path d="M171.246 33.8164C171.246 33.9867 171.204 34.136 171.118 34.2635C171.033 34.3914 170.884 34.4975 170.671 34.5826C170.458 34.6682 170.177 34.7315 169.829 34.7738C169.48 34.8166 169.041 34.838 168.513 34.838C167.951 34.838 167.495 34.8166 167.147 34.7738C166.798 34.7315 166.521 34.6677 166.317 34.5826C166.112 34.4975 165.968 34.3914 165.883 34.2635C165.797 34.1356 165.755 33.9867 165.755 33.8164V31.186C164.494 32.5485 163.213 33.5701 161.911 34.2507C160.608 34.9312 159.258 35.2722 157.862 35.2722C156.295 35.2722 154.98 35.0168 153.916 34.506C152.852 33.9953 151.991 33.2971 151.336 32.4116C150.681 31.5265 150.213 30.5002 149.932 29.3336C149.65 28.1674 149.51 26.7154 149.51 24.9786V11.0334C149.51 10.8636 149.557 10.7143 149.65 10.5864C149.744 10.4584 149.914 10.3524 150.161 10.2673C150.408 10.1821 150.74 10.1184 151.157 10.0756C151.574 10.0333 152.09 10.0119 152.703 10.0119C153.332 10.0119 153.852 10.0333 154.26 10.0756C154.669 10.1184 154.997 10.1821 155.244 10.2673C155.491 10.3524 155.665 10.4584 155.767 10.5864C155.87 10.7143 155.921 10.8636 155.921 11.0334V23.9066C155.921 25.0985 155.997 26.0097 156.15 26.6394C156.303 27.2695 156.537 27.8102 156.853 28.2616C157.168 28.7129 157.568 29.062 158.053 29.3088C158.539 29.5561 159.104 29.6793 159.751 29.6793C160.569 29.6793 161.39 29.3816 162.216 28.7857C163.042 28.1898 163.923 27.3213 164.86 26.1804V11.0334C164.86 10.8636 164.907 10.7143 165.001 10.5864C165.094 10.4584 165.264 10.3524 165.511 10.2673C165.758 10.1821 166.086 10.1184 166.495 10.0756C166.903 10.0333 167.423 10.0119 168.052 10.0119C168.682 10.0119 169.202 10.0333 169.61 10.0756C170.019 10.1184 170.342 10.1821 170.581 10.2673C170.819 10.3524 170.99 10.4584 171.092 10.5864C171.194 10.7143 171.245 10.8636 171.245 11.0334V33.8164H171.246Z" fill="white"/>
<path d="M197.119 33.8933C197.119 34.132 197.034 34.3194 196.864 34.4555C196.694 34.5919 196.425 34.6894 196.06 34.7489C195.693 34.8088 195.153 34.8383 194.438 34.8383C193.672 34.8383 193.114 34.8088 192.765 34.7489C192.416 34.6894 192.168 34.5919 192.024 34.4555C191.879 34.3194 191.806 34.132 191.806 33.8933V32.0799C190.87 33.0848 189.801 33.8676 188.601 34.4298C187.401 34.9919 186.068 35.2725 184.604 35.2725C183.395 35.2725 182.284 35.1146 181.271 34.7998C180.257 34.4849 179.38 34.017 178.64 33.3954C177.899 32.7738 177.324 32.0033 176.916 31.084C176.508 30.1642 176.303 29.0918 176.303 27.8657C176.303 26.5379 176.562 25.3841 177.082 24.4049C177.602 23.4261 178.376 22.6171 179.406 21.9784C180.437 21.3402 181.718 20.8674 183.251 20.5612C184.783 20.2549 186.562 20.1013 188.589 20.1013H190.811V18.7221C190.811 18.0068 190.739 17.3809 190.594 16.8449C190.449 16.3085 190.211 15.8614 189.879 15.5038C189.547 15.1461 189.104 14.8822 188.551 14.7119C187.997 14.5417 187.312 14.4565 186.495 14.4565C185.422 14.4565 184.464 14.5759 183.622 14.8142C182.779 15.0524 182.033 15.3164 181.387 15.606C180.74 15.8957 180.199 16.1596 179.765 16.3979C179.33 16.6366 178.977 16.7555 178.704 16.7555C178.517 16.7555 178.351 16.6961 178.207 16.5767C178.061 16.4578 177.942 16.2875 177.849 16.0659C177.755 15.8448 177.682 15.5723 177.632 15.2484C177.581 14.925 177.555 14.5673 177.555 14.1759C177.555 13.6485 177.597 13.2309 177.683 12.9242C177.768 12.6179 177.93 12.3411 178.168 12.0943C178.407 11.8475 178.824 11.5749 179.42 11.2768C180.016 10.979 180.714 10.7022 181.514 10.4464C182.315 10.191 183.188 9.98268 184.132 9.82098C185.077 9.65928 186.052 9.57843 187.057 9.57843C188.845 9.57843 190.373 9.75345 191.642 10.1021C192.91 10.4511 193.953 10.9876 194.771 11.711C195.588 12.4348 196.184 13.367 196.559 14.5079C196.933 15.6488 197.121 17.0028 197.121 18.5689V33.8933H197.119ZM190.811 24.1366H188.359C187.32 24.1366 186.435 24.2132 185.703 24.3663C184.97 24.5195 184.374 24.7497 183.915 25.0559C183.455 25.3622 183.118 25.7327 182.906 26.1669C182.693 26.6011 182.586 27.0991 182.586 27.6612C182.586 28.6148 182.889 29.3643 183.493 29.9088C184.098 30.4539 184.936 30.7264 186.009 30.7264C186.911 30.7264 187.742 30.4967 188.499 30.0368C189.256 29.5769 190.027 28.9044 190.81 28.0188V24.1366H190.811Z" fill="white"/>
<path d="M219.57 27.3806C219.57 28.6747 219.327 29.8161 218.843 30.8034C218.357 31.7912 217.671 32.6168 216.786 33.2807C215.901 33.9446 214.854 34.4431 213.645 34.775C212.435 35.107 211.125 35.2734 209.711 35.2734C208.859 35.2734 208.047 35.2092 207.272 35.0818C206.497 34.9538 205.803 34.7926 205.19 34.5967C204.577 34.4007 204.067 34.2005 203.658 33.996C203.249 33.7915 202.951 33.6003 202.763 33.4215C202.576 33.2427 202.432 32.9616 202.33 32.5788C202.227 32.1959 202.177 31.6295 202.177 30.8804C202.177 30.3868 202.193 29.9906 202.227 29.6924C202.261 29.3947 202.313 29.1559 202.381 28.9771C202.449 28.7988 202.534 28.6794 202.635 28.62C202.738 28.5605 202.865 28.5306 203.019 28.5306C203.206 28.5306 203.483 28.6371 203.849 28.8497C204.215 29.0627 204.671 29.2962 205.216 29.5521C205.761 29.8075 206.395 30.0462 207.118 30.2674C207.842 30.489 208.664 30.5994 209.583 30.5994C210.162 30.5994 210.677 30.5399 211.129 30.4205C211.579 30.3016 211.971 30.1314 212.304 29.9098C212.636 29.6886 212.887 29.4075 213.057 29.067C213.227 28.7265 213.312 28.3351 213.312 27.8923C213.312 27.3815 213.155 26.943 212.84 26.5768C212.525 26.2111 212.108 25.892 211.588 25.619C211.069 25.347 210.481 25.0916 209.826 24.8528C209.171 24.6146 208.498 24.3506 207.808 24.061C207.119 23.7718 206.446 23.4394 205.791 23.0646C205.135 22.6903 204.548 22.2304 204.028 21.6854C203.509 21.1404 203.092 20.485 202.777 19.7184C202.461 18.9522 202.304 18.0329 202.304 16.96C202.304 15.8704 202.517 14.8698 202.943 13.9586C203.368 13.0478 203.981 12.2688 204.782 11.6215C205.582 10.9747 206.557 10.472 207.706 10.1149C208.856 9.75722 210.145 9.5784 211.576 9.5784C212.291 9.5784 212.985 9.62929 213.658 9.73154C214.33 9.83379 214.938 9.96125 215.484 10.1149C216.029 10.268 216.488 10.434 216.863 10.6128C217.237 10.7916 217.506 10.9448 217.667 11.0727C217.829 11.2006 217.944 11.3281 218.012 11.456C218.08 11.584 218.131 11.7371 218.165 11.9159C218.199 12.0947 218.23 12.3164 218.255 12.5798C218.28 12.8438 218.293 13.1715 218.293 13.5629C218.293 14.0228 218.28 14.3975 218.255 14.6867C218.229 14.9763 218.186 15.206 218.127 15.3763C218.067 15.5465 217.986 15.6616 217.884 15.7211C217.782 15.781 217.662 15.8105 217.526 15.8105C217.373 15.8105 217.134 15.7211 216.811 15.5423C216.487 15.3634 216.083 15.1718 215.598 14.9678C215.112 14.7633 214.55 14.5716 213.912 14.3932C213.273 14.2144 212.545 14.125 211.728 14.125C211.149 14.125 210.647 14.1849 210.221 14.3038C209.795 14.4232 209.446 14.5935 209.174 14.8146C208.901 15.0358 208.697 15.2959 208.561 15.5936C208.424 15.8918 208.356 16.2109 208.356 16.5515C208.356 17.0794 208.518 17.5221 208.842 17.8793C209.165 18.2369 209.591 18.5523 210.119 18.8243C210.647 19.0968 211.247 19.3522 211.92 19.5905C212.592 19.8287 213.274 20.0884 213.963 20.3695C214.653 20.6505 215.334 20.9787 216.007 21.353C216.679 21.7278 217.279 22.1872 217.807 22.7322C218.335 23.2772 218.761 23.9288 219.085 24.6859C219.408 25.4435 219.57 26.3419 219.57 27.3806Z" fill="white"/>
<path d="M231.32 3.32007C231.32 4.61415 231.055 5.50825 230.528 6.00191C230 6.49605 229.021 6.74288 227.591 6.74288C226.143 6.74288 225.168 6.50461 224.666 6.02759C224.163 5.55105 223.912 4.69119 223.912 3.44801C223.912 2.15441 224.172 1.25603 224.692 0.75333C225.211 0.25111 226.194 0 227.642 0C229.072 0 230.043 0.24255 230.553 0.728124C231.064 1.21275 231.32 2.07736 231.32 3.32007ZM230.835 33.8166C230.835 33.9869 230.784 34.1362 230.681 34.2637C230.579 34.3911 230.405 34.4977 230.158 34.5828C229.91 34.6684 229.583 34.7317 229.174 34.774C228.766 34.8168 228.246 34.8382 227.617 34.8382C226.987 34.8382 226.467 34.8168 226.059 34.774C225.65 34.7317 225.322 34.6679 225.076 34.5828C224.828 34.4977 224.654 34.3916 224.552 34.2637C224.449 34.1357 224.398 33.9869 224.398 33.8166V11.0845C224.398 10.9147 224.449 10.7654 224.552 10.6375C224.654 10.5095 224.828 10.3992 225.076 10.3055C225.322 10.2118 225.65 10.1395 226.059 10.0882C226.467 10.0368 226.987 10.0116 227.617 10.0116C228.246 10.0116 228.766 10.0373 229.174 10.0882C229.583 10.139 229.911 10.2118 230.158 10.3055C230.405 10.3992 230.579 10.5095 230.681 10.6375C230.784 10.7654 230.835 10.9147 230.835 11.0845V33.8166Z" fill="white"/>
<path d="M258.215 11.008C258.215 11.0936 258.211 11.1959 258.203 11.3148C258.194 11.4342 258.177 11.5664 258.152 11.711C258.126 11.856 258.092 12.022 258.049 12.2089C258.007 12.3963 257.951 12.6089 257.883 12.8471L251.038 33.4591C250.952 33.7487 250.838 33.9832 250.693 34.162C250.548 34.3408 250.31 34.4811 249.978 34.5834C249.646 34.6856 249.195 34.7532 248.624 34.7879C248.054 34.8216 247.308 34.8388 246.389 34.8388C245.487 34.8388 244.75 34.8174 244.179 34.7746C243.609 34.7322 243.162 34.6599 242.839 34.5577C242.515 34.4554 242.281 34.3151 242.136 34.1363C241.991 33.9575 241.876 33.7316 241.791 33.4591L234.946 12.8471C234.844 12.5066 234.762 12.2003 234.703 11.9278C234.643 11.6558 234.609 11.4598 234.601 11.3405C234.592 11.2216 234.588 11.1108 234.588 11.0085C234.588 10.8387 234.635 10.6894 234.729 10.5615C234.822 10.4335 234.988 10.3275 235.227 10.2423C235.465 10.1572 235.792 10.0978 236.21 10.0635C236.627 10.0298 237.151 10.0126 237.781 10.0126C238.479 10.0126 239.041 10.034 239.467 10.0764C239.892 10.1192 240.229 10.1786 240.476 10.2552C240.722 10.3318 240.897 10.4426 240.999 10.5871C241.101 10.7322 241.187 10.9063 241.255 11.1108L246.439 27.8405L246.593 28.4792L246.746 27.8405L251.854 11.1108C251.905 10.9063 251.986 10.7322 252.097 10.5871C252.207 10.4426 252.382 10.3318 252.621 10.2552C252.859 10.1786 253.178 10.1192 253.578 10.0764C253.978 10.034 254.502 10.0126 255.149 10.0126C255.779 10.0126 256.295 10.0298 256.695 10.0635C257.095 10.0978 257.406 10.1572 257.627 10.2423C257.848 10.3275 258.001 10.4335 258.087 10.5615C258.173 10.6889 258.215 10.8383 258.215 11.008Z" fill="white"/>
<path d="M282.557 21.7615C282.557 22.5448 282.382 23.1241 282.033 23.4984C281.684 23.8732 281.203 24.0605 280.59 24.0605H266.721C266.721 25.0312 266.836 25.9125 267.066 26.7039C267.296 27.4957 267.662 28.1687 268.164 28.7218C268.667 29.2754 269.314 29.6967 270.106 29.9859C270.898 30.2755 271.846 30.4201 272.954 30.4201C274.077 30.4201 275.064 30.3397 275.916 30.1775C276.767 30.0158 277.504 29.837 278.126 29.6411C278.747 29.4456 279.262 29.2668 279.671 29.1046C280.079 28.9429 280.412 28.8621 280.667 28.8621C280.82 28.8621 280.948 28.8916 281.051 28.9515C281.153 29.0114 281.238 29.1175 281.306 29.2706C281.374 29.4237 281.421 29.6411 281.447 29.9221C281.472 30.2032 281.485 30.5566 281.485 30.9822C281.485 31.357 281.476 31.6761 281.459 31.9401C281.442 32.2045 281.416 32.4299 281.382 32.6168C281.348 32.8047 281.297 32.9616 281.229 33.0896C281.161 33.2175 281.072 33.3407 280.962 33.4596C280.851 33.5789 280.548 33.7406 280.055 33.9451C279.561 34.1496 278.931 34.3499 278.165 34.5458C277.398 34.7413 276.521 34.9115 275.534 35.0561C274.546 35.2007 273.491 35.2735 272.367 35.2735C270.34 35.2735 268.565 35.0181 267.042 34.5073C265.517 33.9965 264.245 33.2223 263.223 32.1831C262.202 31.1444 261.439 29.8332 260.937 28.2495C260.434 26.6658 260.184 24.8101 260.184 22.6813C260.184 20.6553 260.448 18.8291 260.975 17.2026C261.502 15.5765 262.269 14.1973 263.274 13.0645C264.278 11.9326 265.5 11.0684 266.939 10.4721C268.378 9.87662 270 9.57843 271.805 9.57843C273.712 9.57843 275.342 9.8595 276.696 10.4212C278.05 10.9833 279.161 11.7623 280.029 12.7582C280.897 13.7546 281.536 14.9335 281.945 16.2956C282.353 17.6582 282.558 19.1396 282.558 20.74V21.7615H282.557ZM276.325 19.922C276.375 18.1176 276.014 16.6999 275.239 15.6693C274.464 14.6392 273.268 14.1241 271.651 14.1241C270.833 14.1241 270.122 14.2772 269.518 14.584C268.914 14.8907 268.411 15.3036 268.011 15.8224C267.611 16.3422 267.305 16.9548 267.092 17.6615C266.878 18.3682 266.755 19.122 266.721 19.922H276.325Z" fill="white"/>
<path d="M189.341 63.3704C189.341 63.4384 189.324 63.5007 189.29 63.5578C189.256 63.6149 189.201 63.6601 189.128 63.6938C189.054 63.7281 188.952 63.7561 188.821 63.7794C188.691 63.8018 188.529 63.8132 188.336 63.8132C188.131 63.8132 187.964 63.8018 187.833 63.7794C187.703 63.7561 187.598 63.7285 187.518 63.6938C187.439 63.6601 187.385 63.6149 187.356 63.5578C187.327 63.5012 187.314 63.4384 187.314 63.3704V53.8858C187.314 53.16 187.248 52.498 187.118 51.9021C186.987 51.3062 186.783 50.7954 186.505 50.3698C186.226 49.9436 185.875 49.6145 185.449 49.382C185.023 49.1494 184.521 49.0334 183.942 49.0334C183.227 49.0334 182.504 49.3116 181.771 49.8675C181.039 50.424 180.236 51.2415 179.362 52.3192V63.3704C179.362 63.4384 179.345 63.5007 179.311 63.5578C179.277 63.6149 179.223 63.6601 179.149 63.6938C179.076 63.7281 178.973 63.7561 178.843 63.7794C178.712 63.8018 178.551 63.8132 178.357 63.8132C178.163 63.8132 178.002 63.8018 177.871 63.7794C177.741 63.7561 177.636 63.7285 177.557 63.6938C177.477 63.6601 177.423 63.6149 177.395 63.5578C177.366 63.5012 177.352 63.4384 177.352 63.3704V53.8858C177.352 53.16 177.284 52.498 177.148 51.9021C177.012 51.3062 176.804 50.7954 176.526 50.3698C176.248 49.9436 175.896 49.6145 175.47 49.382C175.044 49.1494 174.542 49.0334 173.963 49.0334C173.248 49.0334 172.524 49.3116 171.792 49.8675C171.06 50.424 170.262 51.2415 169.4 52.3192V63.3704C169.4 63.4384 169.383 63.5007 169.349 63.5578C169.315 63.6149 169.261 63.6601 169.187 63.6938C169.113 63.7281 169.011 63.7561 168.88 63.7794C168.75 63.8018 168.583 63.8132 168.378 63.8132C168.185 63.8132 168.023 63.8018 167.893 63.7794C167.762 63.7561 167.657 63.7285 167.578 63.6938C167.498 63.6601 167.444 63.6149 167.416 63.5578C167.387 63.5012 167.373 63.4384 167.373 63.3704V47.9604C167.373 47.892 167.387 47.8301 167.416 47.7726C167.444 47.716 167.498 47.668 167.578 47.628C167.657 47.5881 167.757 47.5595 167.875 47.5424C167.995 47.5258 168.151 47.5172 168.344 47.5172C168.537 47.5172 168.695 47.5258 168.82 47.5424C168.946 47.5595 169.042 47.5881 169.11 47.628C169.178 47.668 169.226 47.716 169.255 47.7726C169.283 47.8297 169.297 47.892 169.297 47.9604V50.1401C170.183 49.1523 171.023 48.437 171.818 47.9942C172.612 47.5514 173.401 47.3303 174.185 47.3303C174.831 47.3303 175.407 47.4069 175.913 47.56C176.418 47.7131 176.864 47.9291 177.25 48.2068C177.636 48.4855 177.965 48.817 178.238 49.2032C178.51 49.5893 178.731 50.015 178.901 50.4806C179.435 49.8904 179.937 49.3939 180.408 48.9906C180.879 48.5877 181.328 48.2643 181.754 48.0199C182.179 47.7759 182.591 47.5999 182.988 47.4925C183.385 47.384 183.777 47.3303 184.163 47.3303C185.128 47.3303 185.943 47.5006 186.607 47.8411C187.271 48.1816 187.804 48.6415 188.207 49.2203C188.61 49.7991 188.899 50.4749 189.076 51.2468C189.251 52.0186 189.34 52.8362 189.34 53.6984V63.3704H189.341Z" fill="white"/>
<path d="M210.489 63.3704C210.489 63.4384 210.472 63.5007 210.438 63.5578C210.404 63.6149 210.347 63.66 210.268 63.6938C210.188 63.7281 210.08 63.7561 209.944 63.7794C209.808 63.8018 209.643 63.8132 209.451 63.8132C209.246 63.8132 209.079 63.8018 208.948 63.7794C208.818 63.7561 208.713 63.7285 208.633 63.6938C208.554 63.66 208.497 63.6149 208.463 63.5578C208.429 63.5012 208.412 63.4384 208.412 63.3704V53.1025H197.412V63.3704C197.412 63.4384 197.396 63.5007 197.361 63.5578C197.328 63.6149 197.271 63.66 197.192 63.6938C197.112 63.7281 197.007 63.7561 196.876 63.7794C196.746 63.8018 196.579 63.8132 196.374 63.8132C196.181 63.8132 196.016 63.8018 195.88 63.7794C195.744 63.7561 195.636 63.7285 195.557 63.6938C195.477 63.66 195.421 63.6149 195.386 63.5578C195.352 63.5012 195.335 63.4384 195.335 63.3704V42.017C195.335 41.949 195.352 41.8872 195.386 41.8296C195.421 41.773 195.477 41.7274 195.557 41.6936C195.636 41.6594 195.744 41.6313 195.88 41.608C196.016 41.5857 196.181 41.5742 196.374 41.5742C196.579 41.5742 196.745 41.5857 196.876 41.608C197.007 41.6313 197.112 41.6589 197.192 41.6936C197.271 41.7274 197.328 41.773 197.361 41.8296C197.396 41.8867 197.412 41.949 197.412 42.017V51.2467H208.412V42.017C208.412 41.949 208.429 41.8872 208.463 41.8296C208.497 41.773 208.554 41.7274 208.633 41.6936C208.713 41.6594 208.818 41.6313 208.948 41.608C209.078 41.5857 209.246 41.5742 209.451 41.5742C209.643 41.5742 209.808 41.5857 209.944 41.608C210.08 41.6313 210.188 41.6589 210.268 41.6936C210.347 41.7274 210.404 41.773 210.438 41.8296C210.472 41.8867 210.489 41.949 210.489 42.017V63.3704Z" fill="white"/>
<path d="M229.118 54.8733C229.118 55.2818 229.009 55.5629 228.794 55.716C228.578 55.8692 228.368 55.9458 228.164 55.9458H217.658C217.658 56.8993 217.751 57.762 217.939 58.5334C218.126 59.3058 218.436 59.9669 218.867 60.5176C219.298 61.0683 219.86 61.4911 220.553 61.786C221.245 62.0813 222.096 62.2287 223.107 62.2287C223.822 62.2287 224.463 62.1664 225.031 62.0414C225.598 61.9163 226.09 61.7774 226.504 61.6243C226.918 61.4711 227.259 61.3323 227.525 61.2072C227.792 61.0821 227.982 61.0193 228.096 61.0193C228.164 61.0193 228.226 61.0364 228.284 61.0702C228.34 61.1045 228.385 61.1587 228.42 61.2324C228.453 61.3061 228.479 61.3998 228.496 61.513C228.513 61.6267 228.522 61.7684 228.522 61.9391C228.522 62.0185 228.516 62.0951 228.505 62.1688C228.494 62.2425 228.479 62.311 228.462 62.3733C228.445 62.4361 228.42 62.4955 228.385 62.5521C228.352 62.6092 228.306 62.6658 228.249 62.7224C228.193 62.779 228.017 62.8784 227.722 63.0201C227.427 63.1623 227.04 63.304 226.564 63.4462C226.087 63.5884 225.533 63.7154 224.904 63.8296C224.273 63.9428 223.595 63.9994 222.869 63.9994C221.677 63.9994 220.621 63.8205 219.702 63.4629C218.782 63.1052 218.01 62.5778 217.386 61.8797C216.762 61.1815 216.287 60.3159 215.964 59.283C215.641 58.25 215.479 57.0525 215.479 55.6899C215.479 54.3844 215.646 53.2154 215.982 52.182C216.316 51.149 216.796 50.272 217.42 49.5515C218.044 48.8305 218.797 48.2802 219.676 47.8993C220.556 47.5193 221.534 47.3291 222.614 47.3291C223.772 47.3291 224.759 47.5222 225.576 47.9083C226.393 48.2945 227.066 48.8134 227.594 49.4659C228.121 50.1189 228.508 50.8769 228.752 51.7392C228.996 52.6019 229.118 53.5103 229.118 54.4638V54.8733H229.118ZM227.023 54.2774C227.057 52.6423 226.682 51.3654 225.899 50.4461C225.116 49.5263 223.975 49.0669 222.477 49.0669C221.705 49.0669 221.027 49.2114 220.442 49.5011C219.858 49.7902 219.363 50.1736 218.961 50.6501C218.558 51.1271 218.248 51.6807 218.033 52.3104C217.817 52.9405 217.692 53.5959 217.658 54.2774H227.023Z" fill="white"/>
<path d="M244.579 63.3704C244.579 63.4836 244.541 63.5721 244.468 63.6344C244.394 63.6971 244.298 63.7423 244.179 63.7704C244.06 63.7989 243.898 63.8132 243.694 63.8132C243.5 63.8132 243.336 63.7989 243.199 63.7704C243.063 63.7418 242.958 63.6971 242.885 63.6344C242.811 63.5721 242.774 63.4841 242.774 63.3704V61.6507C242.082 62.3997 241.318 62.9785 240.484 63.387C239.65 63.7956 238.784 64.0001 237.887 64.0001C237.081 64.0001 236.358 63.895 235.716 63.6852C235.075 63.4755 234.533 63.1745 234.09 62.7831C233.647 62.3916 233.307 61.9175 233.069 61.3615C232.831 60.8051 232.711 60.1811 232.711 59.4887C232.711 58.6369 232.887 57.8964 233.239 57.2662C233.591 56.6366 234.09 56.111 234.737 55.6911C235.384 55.2712 236.162 54.9558 237.07 54.7461C237.978 54.5364 238.988 54.4313 240.101 54.4313H242.553V53.103C242.553 52.4447 242.485 51.8631 242.348 51.3575C242.212 50.8525 241.99 50.4297 241.684 50.0892C241.377 49.7482 240.981 49.4928 240.492 49.323C240.004 49.1527 239.408 49.0676 238.704 49.0676C238.023 49.0676 237.41 49.1499 236.865 49.3144C236.32 49.4795 235.844 49.6635 235.435 49.868C235.026 50.0725 234.689 50.257 234.422 50.4216C234.155 50.5861 233.964 50.6684 233.851 50.6684C233.783 50.6684 233.721 50.6575 233.664 50.6347C233.607 50.6118 233.559 50.569 233.519 50.5067C233.479 50.4444 233.451 50.365 233.434 50.2685C233.417 50.1719 233.408 50.0554 233.408 49.9194C233.408 49.6811 233.425 49.4913 233.459 49.3491C233.493 49.2069 233.581 49.0652 233.723 48.923C233.865 48.7813 234.117 48.6144 234.481 48.4208C234.844 48.2277 235.261 48.0489 235.733 47.8843C236.203 47.7198 236.712 47.5861 237.256 47.4839C237.801 47.3816 238.346 47.3307 238.892 47.3307C239.947 47.3307 240.838 47.4587 241.565 47.7141C242.291 47.9695 242.878 48.3357 243.327 48.8127C243.775 49.2892 244.096 49.8766 244.289 50.5752C244.482 51.2734 244.578 52.0652 244.578 52.9503L244.579 63.3704ZM242.553 56.0996H239.743C238.926 56.0996 238.21 56.1733 237.597 56.3208C236.984 56.4687 236.474 56.6846 236.065 56.9676C235.657 57.252 235.352 57.592 235.154 57.9891C234.955 58.3867 234.856 58.8404 234.856 59.3512C234.856 60.2368 235.137 60.9435 235.698 61.4714C236.261 61.9988 237.052 62.2632 238.074 62.2632C238.88 62.2632 239.632 62.0559 240.33 61.6412C241.028 61.2274 241.769 60.5887 242.552 59.726V56.0996H242.553Z" fill="white"/>
<path d="M252.225 63.3703C252.225 63.4383 252.208 63.5006 252.174 63.5577C252.14 63.6148 252.086 63.6599 252.012 63.6937C251.938 63.728 251.836 63.756 251.705 63.7793C251.575 63.8017 251.407 63.8131 251.203 63.8131C251.01 63.8131 250.848 63.8017 250.717 63.7793C250.587 63.756 250.481 63.7284 250.402 63.6937C250.323 63.6599 250.269 63.6148 250.24 63.5577C250.212 63.5011 250.198 63.4383 250.198 63.3703V40.4166C250.198 40.3481 250.212 40.2863 250.24 40.2292C250.269 40.1721 250.323 40.1241 250.402 40.0841C250.481 40.0447 250.587 40.0157 250.717 39.999C250.848 39.9819 251.009 39.9733 251.203 39.9733C251.407 39.9733 251.574 39.9819 251.705 39.999C251.835 40.0157 251.938 40.0447 252.012 40.0841C252.086 40.1241 252.14 40.1726 252.174 40.2292C252.208 40.2858 252.225 40.3481 252.225 40.4166V63.3703Z" fill="white"/>
<path d="M265.319 62.4512C265.319 62.6894 265.299 62.8825 265.259 63.0299C265.219 63.1778 265.157 63.2944 265.071 63.379C264.986 63.4637 264.862 63.544 264.697 63.6173C264.532 63.6915 264.342 63.7538 264.126 63.8051C263.911 63.8565 263.684 63.8955 263.445 63.924C263.207 63.9526 262.974 63.9668 262.747 63.9668C261.986 63.9668 261.34 63.8646 260.806 63.6601C260.272 63.4556 259.835 63.1465 259.495 62.7322C259.154 62.318 258.907 61.7929 258.754 61.1571C258.6 60.5212 258.524 59.7722 258.524 58.909V49.3226H256.226C256.066 49.3226 255.942 49.2517 255.851 49.1095C255.76 48.9678 255.715 48.7552 255.715 48.4713C255.715 48.3234 255.726 48.1959 255.749 48.0879C255.771 47.98 255.805 47.8891 255.851 47.8154C255.896 47.7417 255.95 47.6875 256.012 47.6537C256.075 47.6195 256.146 47.6028 256.226 47.6028H258.524V43.8229C258.524 43.7544 258.538 43.6926 258.567 43.635C258.595 43.5784 258.649 43.5304 258.729 43.4904C258.808 43.4505 258.913 43.422 259.043 43.4048C259.174 43.3882 259.335 43.3792 259.529 43.3792C259.733 43.3792 259.901 43.3882 260.032 43.4048C260.162 43.422 260.264 43.4505 260.338 43.4904C260.413 43.5304 260.466 43.5784 260.5 43.635C260.534 43.6921 260.551 43.7544 260.551 43.8229V47.6028H264.808C264.887 47.6028 264.958 47.6195 265.021 47.6537C265.083 47.6875 265.137 47.7417 265.182 47.8154C265.228 47.8891 265.262 47.9805 265.285 48.0879C265.307 48.1954 265.319 48.3234 265.319 48.4713C265.319 48.7552 265.27 48.9678 265.174 49.1095C265.077 49.2517 264.955 49.3226 264.808 49.3226H260.551V58.6365C260.551 59.8059 260.718 60.6972 261.053 61.3102C261.388 61.9228 261.998 62.2295 262.884 62.2295C263.156 62.2295 263.403 62.2015 263.625 62.1444C263.846 62.0878 264.042 62.025 264.212 61.957C264.382 61.8885 264.527 61.8267 264.646 61.7692C264.765 61.7126 264.87 61.684 264.961 61.684C265.018 61.684 265.069 61.6954 265.114 61.7178C265.159 61.7411 265.197 61.7834 265.225 61.8457C265.253 61.9085 265.276 61.9879 265.293 62.0845C265.31 62.1815 265.319 62.3037 265.319 62.4512Z" fill="white"/>
<path d="M281.852 63.3703C281.852 63.4383 281.836 63.5006 281.801 63.5577C281.768 63.6148 281.713 63.6599 281.64 63.6937C281.566 63.728 281.464 63.756 281.333 63.7793C281.203 63.8017 281.041 63.8131 280.847 63.8131C280.643 63.8131 280.475 63.8017 280.345 63.7793C280.214 63.756 280.112 63.7284 280.038 63.6937C279.964 63.6599 279.91 63.6148 279.876 63.5577C279.842 63.5011 279.825 63.4383 279.825 63.3703V54.2262C279.825 53.2726 279.752 52.4974 279.604 51.9015C279.456 51.3056 279.235 50.7948 278.94 50.3692C278.645 49.9431 278.268 49.614 277.808 49.3814C277.348 49.1488 276.811 49.0328 276.198 49.0328C275.416 49.0328 274.632 49.311 273.849 49.867C273.066 50.4234 272.242 51.2409 271.38 52.3186V63.3698C271.38 63.4378 271.363 63.5002 271.329 63.5572C271.295 63.6143 271.241 63.6595 271.167 63.6932C271.093 63.7275 270.991 63.7555 270.86 63.7788C270.73 63.8012 270.563 63.8126 270.358 63.8126C270.165 63.8126 270.003 63.8012 269.873 63.7788C269.742 63.7555 269.637 63.728 269.558 63.6932C269.478 63.6595 269.424 63.6143 269.396 63.5572C269.367 63.5006 269.353 63.4378 269.353 63.3698V40.4166C269.353 40.3481 269.367 40.2863 269.396 40.2292C269.424 40.1721 269.478 40.1241 269.558 40.0841C269.637 40.0447 269.742 40.0157 269.873 39.999C270.003 39.9819 270.165 39.9733 270.358 39.9733C270.563 39.9733 270.73 39.9819 270.86 39.999C270.991 40.0157 271.093 40.0447 271.167 40.0841C271.241 40.1241 271.295 40.1726 271.329 40.2292C271.363 40.2858 271.38 40.3481 271.38 40.4166V50.0377C272.22 49.107 273.06 48.4226 273.9 47.986C274.74 47.549 275.58 47.3302 276.42 47.3302C277.431 47.3302 278.282 47.5004 278.974 47.841C279.667 48.1815 280.226 48.6414 280.652 49.2202C281.077 49.799 281.384 50.4748 281.571 51.2466C281.759 52.0185 281.852 52.9493 281.852 54.0388V63.3703Z" fill="white"/>
</svg>
